<svg xmlns="http://www.w3.org/2000/svg" width="58" height="58" viewBox="0 0 58 58">
  <g id="Group_15" data-name="Group 15" transform="translate(-158 -743)">
    <g id="Ellipse_5" data-name="Ellipse 5" transform="translate(158 743)" fill="none" stroke="#1abc9c" stroke-width="3">
      <circle cx="29" cy="29" r="29" stroke="none"/>
      <circle cx="29" cy="29" r="27.5" fill="none"/>
    </g>
    <path id="edit-regular" d="M23.642,20.2l1.881-1.881a.472.472,0,0,1,.805.335V27.2a2.822,2.822,0,0,1-2.821,2.821H2.821A2.822,2.822,0,0,1,0,27.2V6.511A2.822,2.822,0,0,1,2.821,3.69H18.893a.473.473,0,0,1,.335.805L17.348,6.376a.466.466,0,0,1-.335.135H2.821V27.2H23.507v-6.67A.462.462,0,0,1,23.642,20.2Zm9.2-11.859L17.412,23.771l-5.312.588a2.428,2.428,0,0,1-2.68-2.68l.588-5.312L25.44.934a3.43,3.43,0,0,1,4.86,0l2.539,2.539a3.442,3.442,0,0,1,.006,4.866Zm-5.806,1.816L23.624,6.74,12.705,17.665,12.276,21.5l3.837-.429Zm3.808-4.684L28.308,2.932a.614.614,0,0,0-.87,0L25.622,4.748l3.414,3.414,1.816-1.816A.626.626,0,0,0,30.846,5.471Z" transform="translate(170 757.075)" fill="#1abc9c"/>
  </g>
</svg>
