<svg xmlns="http://www.w3.org/2000/svg" width="160.88" height="160.904" viewBox="0 0 160.88 160.904">
  <path id="palette-regular" d="M40.224,70.405A10.055,10.055,0,1,0,50.279,80.46,10.044,10.044,0,0,0,40.224,70.405Zm91.313-52.129A80.941,80.941,0,0,0,64.293,1.591,79.98,79.98,0,0,0,1.606,64.027a80.822,80.822,0,0,0,21.3,72.459c14.863,15.523,34.47,24.446,52.758,24.446a50.938,50.938,0,0,0,8.2-.628A23.753,23.753,0,0,0,101.5,147.389a26.625,26.625,0,0,0,.063-24.069,12.105,12.105,0,0,1,.566-11.94A11.461,11.461,0,0,1,112.18,105.6h22.687c14.58,0,26.018-11.218,26.018-25.546a79.976,79.976,0,0,0-29.348-61.776Zm3.331,72.239H112.18a26.726,26.726,0,0,0-22.938,12.977,27.2,27.2,0,0,0-1.131,26.677,11.515,11.515,0,0,1-.063,10.338,8.926,8.926,0,0,1-6.473,4.9c-15.491,2.419-34.219-5.216-47.762-19.356A65.855,65.855,0,0,1,16.406,66.98a64.79,64.79,0,0,1,50.778-50.59,65.887,65.887,0,0,1,54.769,13.543A64.934,64.934,0,0,1,145.8,80.083C145.8,85.928,140.994,90.515,134.867,90.515ZM50.279,40.24A10.055,10.055,0,1,0,60.334,50.3,10.044,10.044,0,0,0,50.279,40.24ZM80.444,30.154A10.055,10.055,0,1,0,90.5,40.209,10.044,10.044,0,0,0,80.444,30.154ZM110.609,40.24A10.055,10.055,0,1,0,120.664,50.3,10.044,10.044,0,0,0,110.609,40.24Z" transform="translate(-0.005 -0.029)" fill="#1abc9c"/>
</svg>
